inDegrees=yes
name=ik_S48_A06_T02
DataType=double
version=3
OpenSimVersion=4.3-2021-08-27-4bc7ad9
endheader
time	pelvis_tilt	pelvis_list	pelvis_rotation	pelvis_tx	pelvis_ty	pelvis_tz	hip_flexion_r	hip_adduction_r	hip_rotation_r	knee_angle_r	knee_angle_r_beta	ankle_angle_r	subtalar_angle_r	mtp_angle_r	hip_flexion_l	hip_adduction_l	hip_rotation_l	knee_angle_l	knee_angle_l_beta	ankle_angle_l	subtalar_angle_l	mtp_angle_l	lumbar_extension	lumbar_bending	lumbar_rotation	arm_flex_r	arm_add_r	arm_rot_r	elbow_flex_r	pro_sup_r	wrist_flex_r	wrist_dev_r	arm_flex_l	arm_add_l	arm_rot_l	elbow_flex_l	pro_sup_l	wrist_flex_l	wrist_dev_l
9.31999999999989	-7.041864330985006	-2.189482545183598	22.47720944724329	0	0.9399999999999999	0	45.5391510139495	-10.77449980979457	-11.13364699415464	50.98835010307122	0.8899145894581828	0	0	0	45.5391510139495	-10.77449980979457	-11.13364699415464	50.98835010307122	0.8899145894581828	0	0	0	-4.88312945024718	-0.9542281551870861	5.561081878395584	38.4977945196646	-7.753731752387261	2.320937445208727	49.58669877717261	143.8669104675085	0	0	75.79101046540305	-4.936045665504165	14.17514994946382	26.47149460111134	70.00628042153782	0	0
9.33999999999989	-7.078372422145742	-2.175834219844341	22.37329892967948	0	0.9399999999999999	0	45.53903786486882	-10.77394043690835	-11.1331190417946	50.98892401499306	0.8899246061108355	0	0	0	45.53903786486882	-10.77394043690835	-11.1331190417946	50.98892401499306	0.8899246061108355	0	0	0	-4.913338841175111	-0.9239552449413676	5.527974996281284	38.67452552116718	-7.668494956078752	2.500615101087251	49.48935058616323	143.8829689214617	0	0	75.80868078446106	-4.99025885984388	14.10437929815485	26.53665670686272	70.07147796737324	0	0
9.359999999999889	-7.091927030771398	-2.178813662525273	22.29092212727997	0	0.9399999999999999	0	45.53887912663919	-10.77314828742106	-11.13237368209335	50.98972180188736	0.8899385301188701	0	0	0	45.53887912663919	-10.77314828742106	-11.13237368209335	50.98972180188736	0.8899385301188701	0	0	0	-4.927392362689885	-0.9218562496346574	5.533975072019433	38.7930082419404	-7.54199154590297	2.609846377988698	49.3711025153188	143.8672443853432	0	0	75.73387366682705	-4.875467208863921	14.16074488898312	26.77143062678839	70.42414899982245	0	0
9.379999999999889	-7.120932087852833	-2.162935295612449	22.17872844837689	0	0.9399999999999999	0	45.53877383555981	-10.77262564713195	-11.13188098563843	50.99025338737459	0.8899478080358783	0	0	0	45.53877383555981	-10.77262564713195	-11.13188098563843	50.99025338737459	0.8899478080358783	0	0	0	-4.950061876994424	-0.8917885969694715	5.494186833994734	38.92833780760478	-7.440104322963639	2.801321611468366	49.30852986575195	143.8927955840007	0	0	75.71570409807194	-4.89784729442218	14.10865186678647	26.84054409645785	70.53576674125853	0	0
9.399999999999888	-7.15496596523615	-2.147126188190749	22.05241319669806	0	0.9399999999999999	0	45.53862762700849	-10.77190156641404	-11.13119778495783	50.99099272690896	0.8899607119450431	0	0	0	45.53862762700849	-10.77190156641404	-11.13119778495783	50.99099272690896	0.8899607119450431	0	0	0	-4.977595722582858	-0.8599464882411092	5.455547327942906	39.08917656654319	-7.329667990111821	3.054777360455883	49.18609553042349	143.8491978563531	0	0	75.70121199455389	-4.947156349520508	14.03878856548057	26.92422352048682	70.63511650945405	0	0
9.419999999999888	-7.198169786188894	-2.139702301901369	21.91128857508429	0	0.9399999999999999	0	45.53848887460606	-10.77121345897167	-11.13054876526331	50.99169311761555	0.8899729360689235	0	0	0	45.53848887460606	-10.77121345897167	-11.13054876526331	50.99169311761555	0.8899729360689235	0	0	0	-5.017067408396919	-0.831728523572701	5.408867102855099	39.29563543281493	-7.212804331140526	3.307028820351554	49.06600256778985	143.8338909444855	0	0	75.71215688535459	-5.012503362274863	13.96719715156036	26.96697853239002	70.69665545162592	0	0
9.439999999999888	-7.229999275622078	-2.123379539932041	21.78968995232929	0	0.9399999999999999	0	45.53838736170906	-10.77070961844537	-11.13007363940531	50.99220494406062	0.8899818691255887	0	0	0	45.53838736170906	-10.77070961844537	-11.13007363940531	50.99220494406062	0.8899818691255887	0	0	0	-5.042535851190421	-0.7998507207894119	5.364371378747188	39.45907450758049	-7.127444314350217	3.49584747240066	48.97750874094085	143.8726769982319	0	0	75.6942527358605	-5.051230311359345	13.91234736088197	26.96641333398059	70.76733542446775	0	0
9.459999999999887	-7.253456325205731	-2.112671597685661	21.48960994890713	0	0.9399999999999999	0	45.53608959374099	-10.76242597911606	-11.12129330877804	51.00690633412757	0.890238456786877	0	0	0	45.53608959374099	-10.76242597911606	-11.12129330877804	51.00690633412757	0.890238456786877	0	0	0	-5.062337327911358	-0.7995805679644238	5.562452310633644	39.51949686730192	-7.094148685960856	3.605784501718934	48.9169974675395	143.8708737677107	0	0	76.32763142950903	-1.325590219839841	14.98396543435302	24.52516319063261	71.19427605279418	0	0
9.479999999999887	-7.316827433799876	-2.089172979659088	21.28850213958956	0	0.9399999999999999	0	45.53598196220059	-10.76189489388717	-11.12079105550188	51.00744876492628	0.8902479239902787	0	0	0	45.53598196220059	-10.76189489388717	-11.12079105550188	51.00744876492628	0.8902479239902787	0	0	0	-5.116384616351191	-0.7445992648950549	5.472118058892817	39.69776985100509	-6.994845274024716	3.845863742206737	48.89956690828296	143.9270517134055	0	0	76.39424677500686	-1.531798194350713	14.82078364515691	24.48848645848889	71.29838127883225	0	0
